# Tiled2Unity generated file. Do not modify by hand.
# Wavefront file for 'test32_mesh_0006.obj'

# Vertices (Count = 128)
v -928 -3008 0
v -960 -3008 0
v -960 -2976 0
v -928 -2976 0
v -960 -3008 0
v -992 -3008 0
v -992 -2976 0
v -960 -2976 0
v -992 -3008 0
v -1024 -3008 0
v -1024 -2976 0
v -992 -2976 0
v -1024 -3008 0
v -1056 -3008 0
v -1056 -2976 0
v -1024 -2976 0
v -1056 -3008 0
v -1088 -3008 0
v -1088 -2976 0
v -1056 -2976 0
v -1088 -3008 0
v -1120 -3008 0
v -1120 -2976 0
v -1088 -2976 0
v -1120 -3008 0
v -1152 -3008 0
v -1152 -2976 0
v -1120 -2976 0
v -1152 -3008 0
v -1184 -3008 0
v -1184 -2976 0
v -1152 -2976 0
v -1184 -3008 0
v -1216 -3008 0
v -1216 -2976 0
v -1184 -2976 0
v -1216 -3008 0
v -1248 -3008 0
v -1248 -2976 0
v -1216 -2976 0
v -1248 -3008 0
v -1280 -3008 0
v -1280 -2976 0
v -1248 -2976 0
v -1280 -3008 0
v -1312 -3008 0
v -1312 -2976 0
v -1280 -2976 0
v -1312 -3008 0
v -1344 -3008 0
v -1344 -2976 0
v -1312 -2976 0
v -1344 -3008 0
v -1376 -3008 0
v -1376 -2976 0
v -1344 -2976 0
v -1376 -3008 0
v -1408 -3008 0
v -1408 -2976 0
v -1376 -2976 0
v -1408 -3008 0
v -1440 -3008 0
v -1440 -2976 0
v -1408 -2976 0
v -928 -3040 0
v -960 -3040 0
v -960 -3008 0
v -928 -3008 0
v -960 -3040 0
v -992 -3040 0
v -992 -3008 0
v -960 -3008 0
v -992 -3040 0
v -1024 -3040 0
v -1024 -3008 0
v -992 -3008 0
v -1024 -3040 0
v -1056 -3040 0
v -1056 -3008 0
v -1024 -3008 0
v -1056 -3040 0
v -1088 -3040 0
v -1088 -3008 0
v -1056 -3008 0
v -1088 -3040 0
v -1120 -3040 0
v -1120 -3008 0
v -1088 -3008 0
v -1120 -3040 0
v -1152 -3040 0
v -1152 -3008 0
v -1120 -3008 0
v -1152 -3040 0
v -1184 -3040 0
v -1184 -3008 0
v -1152 -3008 0
v -1184 -3040 0
v -1216 -3040 0
v -1216 -3008 0
v -1184 -3008 0
v -1216 -3040 0
v -1248 -3040 0
v -1248 -3008 0
v -1216 -3008 0
v -1248 -3040 0
v -1280 -3040 0
v -1280 -3008 0
v -1248 -3008 0
v -1280 -3040 0
v -1312 -3040 0
v -1312 -3008 0
v -1280 -3008 0
v -1312 -3040 0
v -1344 -3040 0
v -1344 -3008 0
v -1312 -3008 0
v -1344 -3040 0
v -1376 -3040 0
v -1376 -3008 0
v -1344 -3008 0
v -1376 -3040 0
v -1408 -3040 0
v -1408 -3008 0
v -1376 -3008 0
v -1408 -3040 0
v -1440 -3040 0
v -1440 -3008 0
v -1408 -3008 0

# Texture cooridinates (Count = 15)
vt 0.21875 0.40625
vt 0.25 0.40625
vt 0.25 0.4375
vt 0.21875 0.4375
vt 0.28125 0.40625
vt 0.28125 0.4375
vt 0.3125 0.40625
vt 0.3125 0.4375
vt 0.34375 0.40625
vt 0.34375 0.4375
vt 0.21875 0.375
vt 0.25 0.375
vt 0.28125 0.375
vt 0.3125 0.375
vt 0.34375 0.375

# Normal
vn 0 0 -1

# Mesh description
g test32_mesh_0006

# Faces
f 1/1/1 2/2/1 3/3/1 4/4/1
f 5/2/1 6/5/1 7/6/1 8/3/1
f 9/5/1 10/7/1 11/8/1 12/6/1
f 13/7/1 14/9/1 15/10/1 16/8/1
f 17/1/1 18/2/1 19/3/1 20/4/1
f 21/2/1 22/5/1 23/6/1 24/3/1
f 25/5/1 26/7/1 27/8/1 28/6/1
f 29/7/1 30/9/1 31/10/1 32/8/1
f 33/1/1 34/2/1 35/3/1 36/4/1
f 37/2/1 38/5/1 39/6/1 40/3/1
f 41/5/1 42/7/1 43/8/1 44/6/1
f 45/7/1 46/9/1 47/10/1 48/8/1
f 49/1/1 50/2/1 51/3/1 52/4/1
f 53/2/1 54/5/1 55/6/1 56/3/1
f 57/5/1 58/7/1 59/8/1 60/6/1
f 61/7/1 62/9/1 63/10/1 64/8/1
f 65/11/1 66/12/1 67/2/1 68/1/1
f 69/12/1 70/13/1 71/5/1 72/2/1
f 73/13/1 74/14/1 75/7/1 76/5/1
f 77/14/1 78/15/1 79/9/1 80/7/1
f 81/11/1 82/12/1 83/2/1 84/1/1
f 85/12/1 86/13/1 87/5/1 88/2/1
f 89/13/1 90/14/1 91/7/1 92/5/1
f 93/14/1 94/15/1 95/9/1 96/7/1
f 97/11/1 98/12/1 99/2/1 100/1/1
f 101/12/1 102/13/1 103/5/1 104/2/1
f 105/13/1 106/14/1 107/7/1 108/5/1
f 109/14/1 110/15/1 111/9/1 112/7/1
f 113/11/1 114/12/1 115/2/1 116/1/1
f 117/12/1 118/13/1 119/5/1 120/2/1
f 121/13/1 122/14/1 123/7/1 124/5/1
f 125/14/1 126/15/1 127/9/1 128/7/1

