# Tiled2Unity generated file. Do not modify by hand.
# Wavefront file for 'test32_mesh_0005.obj'

# Vertices (Count = 80)
v -672 -2144 0
v -704 -2144 0
v -704 -2112 0
v -672 -2112 0
v -672 -2176 0
v -704 -2176 0
v -704 -2144 0
v -672 -2144 0
v -608 -2272 0
v -640 -2272 0
v -640 -2240 0
v -608 -2240 0
v -608 -2304 0
v -640 -2304 0
v -640 -2272 0
v -608 -2272 0
v -576 -2368 0
v -608 -2368 0
v -608 -2336 0
v -576 -2336 0
v -576 -2400 0
v -608 -2400 0
v -608 -2368 0
v -576 -2368 0
v -448 -2432 0
v -480 -2432 0
v -480 -2400 0
v -448 -2400 0
v -448 -2464 0
v -480 -2464 0
v -480 -2432 0
v -448 -2432 0
v -672 -2496 0
v -704 -2496 0
v -704 -2464 0
v -672 -2464 0
v -672 -2528 0
v -704 -2528 0
v -704 -2496 0
v -672 -2496 0
v -1280 -2624 0
v -1312 -2624 0
v -1312 -2592 0
v -1280 -2592 0
v -1312 -2624 0
v -1344 -2624 0
v -1344 -2592 0
v -1312 -2592 0
v -1344 -2624 0
v -1376 -2624 0
v -1376 -2592 0
v -1344 -2592 0
v -1280 -2656 0
v -1312 -2656 0
v -1312 -2624 0
v -1280 -2624 0
v -1312 -2656 0
v -1344 -2656 0
v -1344 -2624 0
v -1312 -2624 0
v -1344 -2656 0
v -1376 -2656 0
v -1376 -2624 0
v -1344 -2624 0
v -1280 -2688 0
v -1312 -2688 0
v -1312 -2656 0
v -1280 -2656 0
v -1344 -2688 0
v -1376 -2688 0
v -1376 -2656 0
v -1344 -2656 0
v -1280 -2720 0
v -1312 -2720 0
v -1312 -2688 0
v -1280 -2688 0
v -1344 -2720 0
v -1376 -2720 0
v -1376 -2688 0
v -1344 -2688 0

# Texture cooridinates (Count = 6)
vt 0.6666667 0.25
vt 0.7777778 0.25
vt 0.7777778 0.3333333
vt 0.6666667 0.3333333
vt 0.6666667 0.1666667
vt 0.7777778 0.1666667

# Normal
vn 0 0 -1

# Mesh description
g test32_mesh_0005

# Faces
f 1/1/1 2/2/1 3/3/1 4/4/1
f 5/5/1 6/6/1 7/2/1 8/1/1
f 9/1/1 10/2/1 11/3/1 12/4/1
f 13/5/1 14/6/1 15/2/1 16/1/1
f 17/1/1 18/2/1 19/3/1 20/4/1
f 21/5/1 22/6/1 23/2/1 24/1/1
f 25/1/1 26/2/1 27/3/1 28/4/1
f 29/5/1 30/6/1 31/2/1 32/1/1
f 33/1/1 34/2/1 35/3/1 36/4/1
f 37/5/1 38/6/1 39/2/1 40/1/1
f 41/1/1 42/2/1 43/3/1 44/4/1
f 45/1/1 46/2/1 47/3/1 48/4/1
f 49/1/1 50/2/1 51/3/1 52/4/1
f 53/5/1 54/6/1 55/2/1 56/1/1
f 57/5/1 58/6/1 59/2/1 60/1/1
f 61/5/1 62/6/1 63/2/1 64/1/1
f 65/1/1 66/2/1 67/3/1 68/4/1
f 69/1/1 70/2/1 71/3/1 72/4/1
f 73/5/1 74/6/1 75/2/1 76/1/1
f 77/5/1 78/6/1 79/2/1 80/1/1

